<?xml version="1.0" encoding="UTF-8"?>
<svg xmlns="http://www.w3.org/2000/svg" height="512pt" viewBox="0 0 512 512" width="512pt">
  <defs>
      <linearGradient id="LogoGradient" x1="0" x2="0" y1="0" y2="1">
        <stop offset="0%" stop-color="#19b5fe"/>
        <stop offset="100%" stop-color="#5333ed"/>
      </linearGradient>
  </defs>
   <path fill="url(#LogoGradient)" d="m467 331c-11.191406 0-21.316406 4.253906-29.195312 11.039062l-84.324219-47.605468c4.722656-11.933594 7.519531-24.839844 7.519531-38.433594 0-26.410156-10.136719-50.289062-26.296875-68.761719l85.144531-99.359375c5.027344 1.945313 10.441406 3.121094 16.152344 3.121094 24.8125 0 45-20.1875 45-45s-20.1875-46-45-46-45 21.1875-45 46c0 8.144531 2.34375 15.683594 6.140625 22.28125l-85.066406 99.269531c-16.261719-10.347656-35.417969-16.550781-56.074219-16.550781-16.148438 0-31.277344 3.96875-44.957031 10.511719l-39.128907-58.683594c5.628907-7.515625 9.085938-16.738281 9.085938-26.828125 0-24.8125-20.1875-45-45-45s-45 20.1875-45 45 20.1875 45 45 45c3.804688 0 7.4375-.617188 10.96875-1.507812l39.152344 58.722656c-21.390625 19.234375-35.121094 46.820312-35.121094 77.785156 0 9.386719 1.636719 18.324219 3.960938 26.988281l-77.023438 32.582031c-8.226562-8.898437-19.890625-14.570312-32.9375-14.570312-24.8125 0-45 20.1875-45 45s20.1875 45 45 45 45-20.1875 45-45c0-.976562-.226562-1.886719-.285156-2.847656l77.019531-32.582032c18.453125 30.070313 51.335937 50.355469 89.105469 50.414063l9.335937 66.363281c-14.296875 7.546875-24.175781 22.390625-24.175781 39.652344 0 24.8125 20.1875 45 45 45s45-20.1875 45-45c0-21.78125-15.5625-39.980469-36.148438-44.105469l-9.371093-66.628906c21.234375-6.269531 39.546875-18.910156 52.875-35.925781l84.449219 47.683594c-.46875 2.597656-.804688 5.246093-.804688 7.976562 0 24.8125 20.1875 45 45 45s45-20.1875 45-45-20.1875-45-45-45zm0 0" />
</svg>